Full Credits To Feel Free :)

 ######## ######## ######## ##          ######## ########  ######## ######## 
 ##       ##       ##       ##          ##       ##     ## ##       ##       
 ##       ##       ##       ##          ##       ##     ## ##       ##       
 ######   ######   ######   ##          ######   ########  ######   ######   
 ##       ##       ##       ##          ##       ##   ##   ##       ##       
 ##       ##       ##       ##          ##       ##    ##  ##       ##       
 ##       ######## ######## ########    ##       ##     ## ######## ########

Genre:Action 
 Language:English
 IMDb: 
http://www.imdb.com/title/tt1754264/
 Source:720p-TDP Thanks!

 Format : AVI
 Format/Info : Audio Video Interleave
 File size : 1.34 GiB
 Duration : 1h 39mn
 Overall bit rate : 1 935 Kbps

 Video
 ID : 0
 Format : MPEG-4 Visual
 Format profile : Advanced Simple@L5
 Format settings, BVOP : Yes
 Format settings, QPel : No
 Format settings, GMC : No warppoints
 Format settings, Matrix : Default (H.263)
 Codec ID : XVID
 Codec ID/Hint : XviD
 Duration : 1h 39mn
 Bit rate : 1 477 Kbps
 Width : 720 pixels
 Height : 392 pixels
 Display aspect ratio : 16:9
 Frame rate : 25.000 fps
 Color space : YUV
 Chroma subsampling : 4:2:0
 Bit depth : 8 bits
 Scan type : Progressive
 Bits/(Pixel*Frame) : 0.209
 Stream size : 1.03 GiB (76%)
 Writing library : XviD 1.2.1 (UTC 2008-12-04)

 Audio
 ID : 1
 Format : AC-3
 Format/Info : Audio Coding 3
 Mode extension : CM (complete main)
 Codec ID : 2000
 Duration : 1h 39mn
 Bit rate mode : Constant
 Bit rate : 448 Kbps
 Channel(s) : 6 channels
 Channel positions : Front: L C R, Side: L R, LFE
 Sampling rate : 48.0 KHz
 Bit depth : 16 bits
 Stream size : 318 MiB (23%)
 Alignment : Aligned on interleaves
 Interleave, duration : 40 ms (1.00 video frame)
 Interleave, preload duration : 512 ms


 Plot:
 Four fighters different backgrounds come together to train under an ex MMA rising star and then ultimately have to fight each other and the traitor in heir midst


Greets:

 INK,CRYS,IMAGINE,LKRG,FXG,3Li,FLAWL3SS,TA,iLLUSiON,ViSiON,DTRG SAFCuk009,LU,TheFalcon007,MYSTiC,PrisM,Noir,WBZ,LAP,Rx,Kingdom,SAFCuk009+Fabreezy,HDLiTE,TWiZTED,ExtraTorrentRG.ELEKTRI4KA,MAGNAT,CM8
 And to all the other p2p grps past and present





==================================                                         
http://thepiratebay.org/user/hiest
==================================






Screenshots:
 
http://www.pix2links.com/images/61856849679123328388.png
 
http://www.pix2links.com/images/44157476336727402093.png
 
http://www.pix2links.com/images/90484150921878287791.png
 
http://www.pix2links.com/images/09426839356182561736.png
 
http://www.pix2links.com/images/14794682162373243199.png
 
http://www.pix2links.com/images/74277671838345476149.png


Full Credits To Feel Free :)

 ######## ######## ######## ##          ######## ########  ######## ######## 
 ##       ##       ##       ##          ##       ##     ## ##       ##       
 ##       ##       ##       ##          ##       ##     ## ##       ##       
 ######   ######   ######   ##          ######   ########  ######   ######   
 ##       ##       ##       ##          ##       ##   ##   ##       ##       
 ##       ##       ##       ##          ##       ##    ##  ##       ##       
 ##       ######## ######## ########    ##       ##     ## ######## ########